<svg id="Camada_1" data-name="Camada 1" xmlns="http://www.w3.org/2000/svg" viewBox="0 0 56.66 31.08"><defs><style>.cls-1{fill:#fff;}</style></defs><path d="M44.2,19.27,56,10.17A1.77,1.77,0,0,0,54.88,7h-5.6a1.76,1.76,0,0,0-1.08.37l-4,3.1L29.41,21.9a1.74,1.74,0,0,1-2.16,0L12.46,10.47l-4-3.1A1.79,1.79,0,0,0,7.37,7H1.77A1.77,1.77,0,0,0,.69,10.17l11.77,9.1L27.25,30.71a1.74,1.74,0,0,0,2.16,0Z"/><path class="cls-1" d="M44.2,12.27,56,3.17A1.77,1.77,0,0,0,54.88,0h-5.6A1.76,1.76,0,0,0,48.2.37l-4,3.1L29.41,14.9a1.74,1.74,0,0,1-2.16,0L12.46,3.47l-4-3.1A1.79,1.79,0,0,0,7.37,0H1.77A1.77,1.77,0,0,0,.69,3.17l11.77,9.1L27.25,23.71a1.74,1.74,0,0,0,2.16,0Z"/></svg>