<svg id="Camada_1" data-name="Camada 1" xmlns="http://www.w3.org/2000/svg" viewBox="0 0 433.3 433.3"><defs><style>.cls-1{fill:#151515;}.cls-2{fill:#ff0043;}</style></defs><path class="cls-1" d="M410.9,195.6c-15.2,0-18-9.1-18-24.1l.9-49.4c0-44.6-20.1-52.7-45.4-52.7h-8.2v35.5h4c11.3,0,16.5,4.4,16.5,22.3l-.9,44.6c-.3,28.5,7.6,40.2,22.9,45.7-10.1,2.8-17.2,10-20.7,23.5h9.1a89.82,89.82,0,0,0-2.2,22.3l.1,5.2H356.7v.9l.4,17.4h12.3l.4,18.6c0,17.6-5.2,22.7-17.4,22.7h-3V364h7.3c25,0,46.3-8.8,46.3-54.9l-.4-22.3H390.3l-.4-18.3h12.3l-.1-6.6c0-9.6,1.1-16.8,5.8-20.8h-9.1c2.8-2.4,7-3.7,13.1-3.7h4.9V195.7h-5.9Z"/><path class="cls-2" d="M310.7,268.5a89,89,0,0,0,5.5-27.4h-9.1c.1-1.3.1-2.6.1-3.9V137.9A32.24,32.24,0,0,0,275,105.7h-.7a32.24,32.24,0,0,0-32.2,32.2v43.4H191.5v-6.9A32.46,32.46,0,0,0,159.1,142h-.4a32.46,32.46,0,0,0-32.4,32.4v61.7c0,1.6,0,3.3.1,4.9h9.1a92.22,92.22,0,0,0,5.7,27.4H126.9a92.09,92.09,0,0,0,7.7,18.3h15.9c16.1,24.4,43.6,40.7,74.6,40.9h.7a90.44,90.44,0,0,0,75.6-40.9h-8.5a89.37,89.37,0,0,0,7.6-18.3h10.2Zm-32.6,0a69.45,69.45,0,0,1-10.6,18.3h6.6a68.87,68.87,0,0,1-48.3,19.7h-.5a67.94,67.94,0,0,1-47.4-19.7H160.1a69.77,69.77,0,0,1-10.7-18.3h15a68.68,68.68,0,0,1-7.6-27.4h-9.1c-.1-1.6-.2-3.2-.2-4.9V174.5a11.14,11.14,0,0,1,11.1-11.1h.4a11.14,11.14,0,0,1,11.1,11.1v53.4a10.6,10.6,0,0,0,21.2,0V202.6h12.9v25.3a10.6,10.6,0,1,0,21.2,0V202.6h16.4v25.3a10.6,10.6,0,0,0,21.2,0v-90a11,11,0,0,1,11-11h.7a11,11,0,0,1,11,11v99.3c0,1.3,0,2.6-.1,3.9h9.1a68.48,68.48,0,0,1-7.4,27.4Z"/><path class="cls-1" d="M98.4,328.4c-11.3,0-16.5-4.4-16.5-22.3l.4-19.3H70.2l.4-18.3H82.7l.1-7a92.51,92.51,0,0,0-1.7-20.4H72c-3.1-14.2-10.3-21.4-21.4-25.3,14.9-4,23.5-17.6,23.2-45.7l-.9-41.7c0-17.9,5.2-23,17.1-23h3v-36H86c-25,0-46.7,8.8-46.7,54.9l1.2,47.2c0,15.7-3,24.5-18.9,24.5H16.7v41.7h5.8c5.3,0,9.1,1.2,11.8,3.4h9.1c4.9,3.9,6.2,11.1,6.2,20.8l-.2,6.6h-12l-.5,18.3h12l-.6,24.4c0,44.6,20.4,52.7,45.7,52.7h7.9V328.4Z"/></svg>